<svg width="47" height="47" viewBox="0 0 47 47" fill="none" xmlns="http://www.w3.org/2000/svg">
<path d="M11.7455 25.4465V22.6714C11.7455 20.6609 11.0935 18.7046 9.88717 17.0962C8.23328 14.8911 9.80673 11.7441 12.5632 11.7441H34.4177C37.1741 11.7441 38.7476 14.8911 37.0937 17.0962C35.8874 18.7046 35.2353 20.6609 35.2353 22.6714V35.2339C35.2353 39.5583 31.7298 43.0639 27.4054 43.0639H19.5755C15.2511 43.0639 11.7455 39.5583 11.7455 35.2339V33.2765" stroke="#2B3F6C" stroke-width="2.93622" stroke-linecap="round"/>
<path d="M27.4045 33.2766L27.4045 21.5317" stroke="#2B3F6C" stroke-width="2.93622" stroke-linecap="round" stroke-linejoin="round"/>
<path d="M19.575 33.2766L19.575 21.5317" stroke="#2B3F6C" stroke-width="2.93622" stroke-linecap="round" stroke-linejoin="round"/>
<path d="M28.6521 6.48949C28.0363 6.09522 27.3084 5.87177 26.5413 5.87177H20.4399C19.6728 5.87177 18.9449 6.09522 18.3292 6.48949" stroke="#2B3F6C" stroke-width="2.93622" stroke-linecap="round"/>
</svg>
